# xmcd
#
# Track frame offsets: 
#        150
#        18817
#        42120
#        70877
#        88866
#        108545
#        124309
#        151744
#        165284
#        182120
#        203582
#        219463
#        246869
#        264547
#        288714
#
# Disc length: 4129 seconds
#
# Revision: 0
# Processed by: cddbd v1.4PL0 Copyright (c) Steve Scherf et al.
# Submitted via: ExactAudioCopy v0.90b4
#
DISCID=cf101f0f
DTITLE=Tom Shaka - Bless My Soul
DYEAR=2002
DGENRE=Blues
TTITLE0=I Feel So Good Today
TTITLE1=Going Up To The Country, Paint My Mailbox Blue
TTITLE2=Down and Out In Amsterdam
TTITLE3=Tom's Boogie
TTITLE4=Smokestack Lightnin'
TTITLE5=You Gonna Miss Me
TTITLE6=Churchhouse Blues
TTITLE7=Good Lord
TTITLE8=Georgia Rag
TTITLE9=Sitting On The Top Of The World
TTITLE10=Sea Cruise
TTITLE11=War Blues
TTITLE12=Bless My Soul
TTITLE13=Jammin' The Blues
TTITLE14=Keep Your Eyes On The Road
EXTD=
EXTT0=
EXTT1=
EXTT2=
EXTT3=
EXTT4=
EXTT5=
EXTT6=
EXTT7=
EXTT8=
EXTT9=
EXTT10=
EXTT11=
EXTT12=
EXTT13=
EXTT14=
PLAYORDER=
